<svg xmlns="http://www.w3.org/2000/svg" viewBox="0 0 654 654"><path d="M305.5 637.0C305.1 636.4 299.7 636.0 292.5 636.0C283.5 636.0 280.0 635.7 279.7 634.8C279.4 633.8 278.8 633.8 277.1 634.8C275.4 635.8 274.6 635.8 272.9 634.8C271.2 633.8 270.6 633.8 270.3 634.8C269.7 636.2 262.0 636.5 262.0 635.0C262.0 634.5 261.1 634.0 260.0 634.0C258.9 634.0 258.0 634.5 258.0 635.0C258.0 635.5 257.1 636.0 256.0 636.0C254.9 636.0 254.0 635.5 254.0 634.9C254.0 634.2 252.9 634.0 251.0 634.4C248.8 634.8 248.0 634.6 248.0 633.5C248.0 632.4 246.9 632.0 244.1 632.0C241.9 632.0 239.9 631.4 239.6 630.8C239.1 629.8 238.9 629.8 238.4 630.8C237.4 632.8 234.0 632.3 234.0 630.0C234.0 628.4 233.3 628.0 231.0 628.0C228.7 628.0 228.0 627.6 228.0 626.0C228.0 623.8 226.4 623.3 225.7 625.2C225.4 626.2 224.8 626.1 223.5 624.8C222.0 623.4 221.9 622.8 222.9 621.6C224.3 619.9 223.6 618.0 221.6 618.0C220.8 618.0 219.7 617.3 218.9 616.4C217.9 615.1 217.9 614.7 219.0 614.0C220.0 613.4 219.7 612.6 217.7 610.6C215.7 608.6 214.1 608.0 210.5 608.0C206.7 608.0 206.0 607.7 206.0 606.0C206.0 604.5 205.3 604.0 203.2 604.0C201.6 604.0 199.8 603.2 199.0 602.0C198.2 600.8 196.4 600.0 194.8 600.0C193.3 600.0 192.0 599.5 192.0 599.0C192.0 598.5 191.2 598.0 190.2 598.0C189.2 598.0 187.8 597.1 187.0 596.0C186.2 594.8 184.4 594.0 182.8 594.0C180.9 594.0 180.0 593.5 180.0 592.4C180.0 591.6 179.3 590.1 178.4 589.3C177.1 587.9 176.7 587.9 175.9 589.1C175.1 590.2 174.6 590.1 173.1 588.2C172.0 587.0 170.4 586.0 169.3 586.0C166.8 585.9 164.0 583.6 164.0 581.6C164.0 580.7 163.3 580.0 162.4 580.0C161.6 580.0 158.2 577.3 155.0 574.0C151.8 570.7 148.6 568.0 148.0 568.0C147.3 568.0 145.5 566.6 144.0 565.0C142.5 563.4 140.7 562.0 140.0 562.0C139.3 562.0 137.5 560.6 136.0 559.0C134.5 557.4 132.6 556.0 131.8 556.0C131.1 556.0 129.8 555.1 129.0 554.0C128.2 552.9 127.0 552.0 126.2 552.0C125.5 552.0 123.4 550.4 121.4 548.5C119.5 546.6 117.6 545.0 117.1 545.0C115.6 545.0 112.0 541.3 112.0 539.6C112.0 537.7 110.4 537.4 109.7 539.2C109.5 540.0 108.9 540.1 108.4 539.6C107.9 539.1 108.0 538.5 108.8 538.3C111.3 537.4 109.8 534.7 103.0 528.0C98.7 523.7 96.0 520.3 96.0 518.9C96.0 517.8 94.7 515.5 93.0 514.0C91.4 512.5 90.0 510.7 90.0 510.2C90.0 509.7 87.8 506.9 85.0 504.1C82.2 501.3 80.0 498.4 80.0 497.7C80.0 497.0 79.1 495.8 78.0 495.0C76.9 494.2 76.0 492.8 76.0 491.8C76.0 490.8 75.5 490.0 75.0 490.0C74.5 490.0 74.0 488.2 74.0 486.0C74.0 482.2 73.8 481.9 71.3 482.2C68.9 482.5 68.5 482.1 68.2 479.7C68.0 478.1 66.5 475.6 64.9 474.1C63.3 472.5 62.0 470.5 62.0 469.6C62.0 467.7 64.0 467.4 64.0 469.2C64.1 471.1 68.7 476.0 70.5 476.0C71.4 476.0 72.0 475.1 72.0 473.5C72.0 472.1 73.1 469.7 74.5 468.2C76.6 466.0 77.2 465.7 78.0 467.0C78.5 467.8 79.3 468.1 79.7 467.6C80.1 467.1 79.9 466.5 79.3 466.3C78.6 466.0 78.0 465.0 78.0 463.9C78.0 462.9 77.5 462.0 77.0 462.0C76.5 462.0 76.0 461.2 76.0 460.2C76.0 459.2 75.1 457.8 74.0 457.0C72.9 456.2 72.0 454.4 72.0 453.0C72.0 450.0 70.3 448.0 67.8 448.0C66.7 448.0 66.0 447.3 66.0 446.0C66.0 444.9 65.5 444.0 65.0 444.0C64.5 444.0 64.0 442.8 64.0 441.4C64.0 439.7 63.4 438.6 62.0 438.3C60.4 437.9 60.0 436.9 60.0 433.9C60.0 431.7 59.5 430.0 59.0 430.0C58.5 430.0 58.0 429.2 58.0 428.2C58.0 427.2 57.1 425.8 56.0 425.0C54.9 424.2 54.0 422.8 54.0 421.8C54.0 420.8 53.5 420.0 53.0 420.0C52.5 420.0 52.0 419.1 52.0 418.0C52.0 416.9 51.5 416.0 51.0 416.0C50.5 416.0 50.0 415.1 50.0 414.0C50.0 412.9 49.5 412.0 49.0 412.0C48.5 412.0 48.0 411.1 48.0 410.0C48.0 408.7 47.3 408.0 46.0 408.0C44.7 408.0 44.0 408.7 44.0 410.0C44.0 411.1 44.5 412.0 45.0 412.0C45.5 412.0 46.0 414.0 46.0 416.5C46.0 419.7 46.6 421.7 48.0 423.2C49.2 424.5 50.0 426.8 50.0 428.7C50.0 430.5 50.5 432.0 51.0 432.0C51.5 432.0 52.0 432.9 52.0 434.0C52.0 435.2 52.7 437.2 53.6 438.6C55.7 441.8 54.9 442.6 51.1 440.9C48.2 439.6 48.0 439.2 48.0 434.2C48.0 429.7 47.7 428.7 46.0 428.3C44.6 427.9 44.0 426.9 44.0 425.0C44.0 422.8 43.5 422.1 41.7 421.8C39.7 421.5 39.5 421.1 39.8 415.8C40.1 410.5 39.9 410.0 38.1 410.0C36.3 410.0 36.0 409.4 36.0 405.0C36.0 402.2 35.5 400.0 35.0 400.0C34.5 400.0 34.0 399.1 34.0 398.0C34.0 396.9 33.5 396.0 33.0 396.0C32.5 396.0 32.0 394.1 32.0 391.7C32.0 387.4 30.2 382.0 28.8 382.0C27.6 382.0 27.9 374.2 29.0 373.8C29.6 373.6 30.1 371.9 30.3 370.0C30.5 366.5 35.6 360.0 38.0 360.0C39.6 360.0 46.0 353.3 46.0 351.5C46.0 350.7 45.5 350.0 45.0 350.0C44.4 350.0 44.0 347.3 44.0 344.0C44.0 340.7 43.6 338.0 43.0 338.0C42.4 338.0 42.0 331.3 42.0 320.0C42.0 308.7 42.4 302.0 43.0 302.0C43.5 302.0 44.0 299.8 44.0 297.0C44.0 294.2 44.5 292.0 45.0 292.0C45.5 292.0 46.0 290.2 46.0 288.0C46.0 285.8 46.5 284.0 47.0 284.0C47.5 284.0 48.0 282.6 48.0 281.0C48.0 279.4 48.5 278.0 49.0 278.0C49.5 278.0 50.0 277.1 50.0 276.0C50.0 274.9 50.5 274.0 51.0 274.0C51.5 274.0 52.0 272.9 52.0 271.5C52.0 268.6 56.0 264.0 58.5 264.0C59.3 264.0 60.0 263.6 60.0 263.0C60.0 262.4 60.9 262.0 62.0 262.0C63.6 262.0 64.0 261.3 64.0 259.0C64.0 256.4 64.4 256.0 66.6 256.0C69.9 256.0 72.0 253.9 72.0 250.6C72.0 249.2 72.5 248.0 73.0 248.0C73.5 248.0 74.0 246.7 74.0 245.0C74.0 243.3 74.5 242.0 75.0 242.0C75.5 242.0 76.0 239.8 76.0 237.0C76.0 234.2 76.5 232.0 77.0 232.0C77.5 232.0 78.0 230.7 78.0 229.0C78.0 227.3 77.5 226.0 77.0 226.0C76.5 226.0 76.0 223.8 76.0 221.0C76.0 216.7 75.7 216.0 74.0 216.0C72.9 216.0 72.0 215.6 72.0 215.0C72.0 214.4 70.4 214.0 68.4 214.0C66.5 214.0 64.2 213.4 63.4 212.6C61.8 210.9 61.5 208.0 63.0 208.0C63.5 208.0 64.0 205.8 64.0 203.2C64.0 199.6 64.5 198.1 66.0 197.0C67.1 196.2 68.0 195.0 68.0 194.2C68.0 192.4 70.5 190.0 72.4 190.0C73.6 190.0 74.0 189.0 74.0 186.0C74.0 182.6 74.3 182.0 76.1 182.0C78.1 182.0 78.2 181.6 77.8 176.0C77.5 171.5 77.7 170.0 78.7 170.0C79.6 170.0 80.0 168.5 80.0 165.0C80.0 160.3 80.2 160.0 82.5 160.0C85.1 160.0 90.0 156.0 90.0 154.0C90.0 152.5 91.8 150.9 95.3 149.1C98.0 147.7 98.9 146.0 97.0 146.0C96.5 146.0 96.0 145.3 96.0 144.4C96.0 142.6 98.3 140.0 100.0 140.0C102.2 140.0 104.0 137.1 104.0 133.8C104.0 131.6 104.7 129.9 106.0 129.0C107.1 128.2 108.0 126.9 108.0 126.2C108.0 125.5 109.8 123.1 112.0 121.0C114.2 118.9 116.0 116.4 116.0 115.6C116.0 114.7 116.7 114.0 117.6 114.0C119.4 114.0 122.0 111.6 122.0 110.0C122.0 109.3 123.3 107.5 125.0 106.0C128.7 102.5 128.9 100.0 125.6 100.0C124.2 100.0 122.8 100.5 122.5 101.0C121.6 102.5 120.0 102.2 120.0 100.5C120.0 99.6 121.6 97.4 123.5 95.4C125.4 93.5 127.0 91.5 127.0 91.1C127.0 89.7 132.7 84.0 134.0 84.0C134.6 84.0 137.3 81.8 140.0 79.0C142.7 76.3 145.5 74.0 146.2 74.0C147.0 74.0 148.2 73.1 149.0 72.0C149.8 70.9 151.2 70.0 152.2 70.0C153.3 70.0 154.0 69.3 154.0 68.0C154.0 66.7 154.7 66.0 156.0 66.0C157.1 66.0 158.0 65.5 158.0 65.0C158.0 64.5 158.8 64.0 159.8 64.0C160.8 64.0 162.2 63.1 163.0 62.0C163.8 60.9 165.2 60.0 166.2 60.0C167.2 60.0 168.0 59.5 168.0 59.0C168.0 58.5 168.9 58.0 170.0 58.0C171.1 58.0 172.0 57.5 172.0 57.0C172.0 56.5 173.3 56.0 175.0 56.0C176.7 56.0 178.0 55.5 178.0 55.0C178.0 54.5 179.3 54.0 181.0 54.0C182.7 54.0 184.0 53.5 184.0 53.0C184.0 52.5 185.3 52.0 186.8 52.0C188.4 52.0 190.2 51.2 191.0 50.0C192.0 48.6 193.6 48.0 196.2 48.0C198.3 48.0 200.0 47.5 200.0 47.0C200.0 46.5 201.8 46.0 204.0 46.0C206.2 46.0 208.0 45.5 208.0 45.0C208.0 44.5 208.9 44.0 210.0 44.0C211.1 44.0 212.0 43.5 212.0 43.0C212.0 42.5 214.2 42.0 216.8 42.0C220.4 42.0 221.9 41.5 223.0 40.0C223.8 38.9 225.2 38.0 226.2 38.0C227.2 38.0 228.0 37.5 228.0 37.0C228.0 36.5 229.3 36.0 231.0 36.0C232.7 36.0 234.0 35.5 234.0 35.0C234.0 34.5 235.3 34.0 237.0 34.0C238.7 34.0 240.0 33.5 240.0 33.0C240.0 32.5 241.7 32.0 243.8 32.0C246.4 32.0 248.0 31.4 249.0 30.0C249.8 28.8 251.6 28.0 253.2 28.0C254.7 28.0 256.0 27.6 256.0 27.0C256.0 26.4 262.0 26.0 272.0 26.0C282.0 26.0 288.0 25.6 288.0 25.0C288.0 24.4 288.9 24.0 290.0 24.0C291.1 24.0 292.0 23.6 292.0 23.0C292.0 22.4 292.6 22.0 293.3 22.0C294.0 22.0 295.6 21.1 296.8 20.0C298.6 18.3 300.3 18.0 307.5 18.0C312.5 18.0 316.0 17.6 316.0 17.0C316.0 15.6 329.7 15.7 330.6 17.1C331.0 17.7 332.6 17.9 334.6 17.5C337.3 17.0 338.0 17.2 338.0 18.5C338.0 19.3 337.6 20.0 337.0 20.0C336.4 20.0 336.0 20.4 336.0 21.0C336.0 21.6 337.4 22.0 339.0 22.0C341.6 22.0 342.0 22.4 342.0 24.6C342.0 26.6 341.6 27.1 340.4 26.6C339.5 26.3 337.7 26.0 336.4 26.0C334.4 26.0 334.0 25.5 334.0 23.0C334.0 19.6 333.5 19.3 331.2 21.7C330.0 22.9 329.9 23.5 330.8 23.8C332.9 24.5 332.1 26.0 329.6 26.0C328.2 26.0 326.8 26.4 326.5 27.0C326.2 27.5 324.8 28.0 323.5 28.0C322.2 28.0 320.8 28.4 320.5 29.0C319.6 30.4 314.7 30.3 313.2 28.8C312.3 27.9 311.7 27.9 310.8 28.8C310.1 29.5 308.8 30.0 307.8 30.0C306.8 30.0 306.0 30.4 306.0 31.0C306.0 31.5 313.1 31.9 324.0 31.9C333.9 31.8 342.0 31.4 342.0 30.9C342.0 30.4 343.8 30.0 346.0 30.0C349.3 30.0 350.0 29.7 350.0 28.0C350.0 26.1 350.7 26.0 359.0 26.0C364.3 26.0 368.0 26.4 368.0 27.0C368.0 27.6 369.8 28.0 372.0 28.0C375.3 28.0 376.0 28.3 376.0 30.0C376.0 31.6 376.7 32.0 379.0 32.0C380.6 32.0 382.0 32.5 382.0 33.0C382.0 33.5 383.4 34.0 385.0 34.0C386.6 34.0 388.0 34.5 388.0 35.0C388.0 35.5 389.4 36.0 391.0 36.0C392.6 36.0 394.0 36.5 394.0 37.0C394.0 37.6 396.6 38.0 399.9 38.0C403.7 38.0 406.0 38.4 406.3 39.3C406.7 40.2 407.1 40.1 407.9 39.0C408.7 37.8 409.2 37.8 410.2 38.8C411.7 40.3 416.2 40.4 417.8 38.8C418.7 37.9 419.3 37.9 420.2 38.8C420.9 39.5 423.7 40.0 426.5 40.0C430.4 40.0 431.9 40.5 433.0 42.0C433.8 43.2 435.6 44.0 437.2 44.0C438.7 44.0 440.0 44.5 440.0 45.0C440.0 45.5 440.9 46.0 442.0 46.0C443.1 46.0 444.0 46.5 444.0 47.0C444.0 47.5 445.4 48.0 447.0 48.0C448.6 48.0 450.0 48.5 450.0 49.0C450.0 49.6 453.3 50.0 458.0 50.0C462.7 50.0 466.0 50.4 466.0 51.0C466.0 51.5 466.8 52.0 467.8 52.0C468.8 52.0 470.2 52.9 471.0 54.0C471.8 55.1 473.6 56.0 475.1 56.0C476.6 56.0 478.0 56.6 478.3 57.3C478.6 58.2 479.2 58.2 481.2 57.1C483.8 55.8 486.0 56.2 486.0 58.1C486.0 60.5 491.0 64.0 494.4 64.0C496.3 64.0 498.1 64.6 498.4 65.3C498.9 66.2 499.1 66.2 499.6 65.3C500.5 63.3 502.0 63.8 502.0 66.1C502.0 67.7 502.6 68.1 504.8 67.9C510.4 67.5 512.0 67.9 512.0 70.0C512.0 71.3 512.7 72.0 513.8 72.0C514.8 72.0 516.2 72.9 517.0 74.0C517.8 75.1 519.2 76.0 520.2 76.0C521.3 76.0 522.0 76.7 522.0 78.0C522.0 79.6 522.7 80.0 525.6 80.0C528.6 80.0 530.0 80.9 535.2 86.2C539.7 90.8 541.4 92.0 542.0 90.9C543.1 89.2 544.3 90.3 544.5 93.3C544.6 95.1 545.3 95.6 548.3 95.8C550.8 96.0 552.0 96.6 552.0 97.6C552.0 99.5 556.4 104.0 558.3 104.0C560.1 104.0 562.0 106.0 562.0 108.0C562.0 108.8 562.9 110.2 564.0 111.0C565.1 111.8 566.0 113.2 566.0 114.2C566.0 115.3 566.7 116.0 568.0 116.0C569.2 116.0 570.0 116.7 570.0 117.6C570.0 119.6 572.4 122.0 574.4 122.0C575.3 122.0 576.0 122.6 576.0 123.3C576.0 124.0 577.6 126.3 579.5 128.4C583.7 133.0 583.8 134.0 580.5 134.0C578.9 134.0 578.0 134.6 578.0 135.5C578.0 136.3 577.5 137.9 576.8 138.9C575.8 140.5 576.3 141.5 580.8 145.8C583.7 148.6 586.0 151.4 586.0 152.0C586.0 152.7 588.2 155.4 591.0 158.1C594.4 161.4 596.0 163.8 596.0 165.5C596.0 166.9 596.5 168.0 597.0 168.0C597.5 168.0 598.0 170.2 598.0 173.0C598.0 177.7 596.9 179.3 595.5 177.0C595.1 176.4 594.0 176.0 593.1 176.2C590.1 176.7 588.0 174.1 588.0 169.9C588.0 166.1 586.8 164.7 585.6 167.3C585.1 168.2 584.9 168.2 584.4 167.2C583.4 165.0 582.0 166.0 582.0 169.0C582.0 170.7 581.5 172.0 581.0 172.0C580.5 172.0 580.0 172.4 580.0 173.0C580.0 173.6 580.9 174.0 582.0 174.0C583.1 174.0 584.0 174.4 584.0 175.0C584.0 175.6 584.9 176.0 585.9 176.0C587.4 176.0 587.9 176.9 588.2 180.1C588.4 182.4 588.0 184.9 587.3 185.9C585.6 188.1 585.7 190.0 587.6 190.0C589.6 190.0 592.0 192.4 592.0 194.4C592.0 195.3 592.5 196.0 593.0 196.0C593.5 196.0 594.0 197.3 594.0 199.0C594.0 200.7 594.5 202.0 595.0 202.0C595.5 202.0 596.0 203.1 596.0 204.5C596.0 205.9 596.9 208.0 598.0 209.2C599.4 210.7 600.0 212.8 600.0 215.7C600.0 218.1 600.5 220.0 601.0 220.0C601.5 220.0 602.0 220.9 602.0 222.0C602.0 223.1 602.5 224.0 603.0 224.0C603.5 224.0 604.0 225.2 604.0 226.8C604.0 228.4 604.8 230.0 606.0 230.8C607.3 231.6 608.0 233.1 608.0 235.1C608.0 237.7 607.7 238.1 605.8 237.8C604.5 237.6 603.5 237.1 603.5 236.5C603.4 234.7 599.8 228.0 598.9 228.0C598.4 228.0 598.0 226.2 598.0 224.0C598.0 221.8 597.5 220.0 597.0 220.0C596.5 220.0 596.0 219.5 596.0 218.8C596.0 218.2 595.0 216.5 593.8 215.2C592.2 213.5 591.9 212.6 592.8 212.3C594.6 211.6 594.3 210.3 592.0 209.7C590.3 209.3 590.0 208.3 590.0 204.1C590.0 200.3 589.5 198.3 588.0 196.8C586.9 195.6 586.0 194.0 586.0 193.3C586.0 192.6 585.5 192.0 585.0 192.0C584.5 192.0 584.0 190.9 584.0 189.6C584.0 188.2 583.5 186.8 583.0 186.5C582.5 186.2 582.0 185.0 582.0 183.9C582.0 182.9 581.5 182.0 581.0 182.0C580.5 182.0 580.0 180.7 580.0 179.2C580.0 177.6 579.2 175.8 578.0 175.0C576.9 174.2 576.0 172.9 576.0 172.2C576.0 171.4 574.6 169.5 573.0 168.0C571.4 166.5 570.0 164.6 570.0 163.8C570.0 163.1 569.1 161.8 568.0 161.0C566.9 160.2 566.0 158.8 566.0 157.8C566.0 156.8 565.5 156.0 565.0 156.0C564.5 156.0 564.0 155.3 564.0 154.5C564.0 152.5 551.5 140.0 549.5 140.0C548.7 140.0 548.0 139.3 548.0 138.4C548.0 136.4 545.6 134.0 543.6 134.0C542.7 134.0 542.0 133.6 542.0 133.0C542.0 132.4 540.6 132.0 539.0 132.0C536.7 132.0 536.0 131.6 536.0 130.0C536.0 128.7 535.3 128.0 534.0 128.0C532.9 128.0 532.0 127.5 532.0 127.0C532.0 126.5 531.1 126.0 530.0 126.0C528.9 126.0 528.0 125.5 528.0 125.0C528.0 124.5 527.1 124.0 526.0 124.0C524.7 124.0 524.0 123.3 524.0 122.0C524.0 119.8 522.4 119.3 521.7 121.3C521.3 122.2 521.0 122.2 519.9 121.2C519.2 120.6 517.7 120.0 516.7 120.0C514.8 120.0 511.0 116.6 511.0 114.8C511.0 114.4 510.3 114.0 509.5 114.0C508.7 114.0 508.0 113.5 508.0 113.0C508.0 112.5 507.1 112.0 506.0 112.0C504.9 112.0 504.0 111.5 504.0 111.0C504.0 110.5 502.4 110.0 500.4 110.0C496.6 110.0 489.7 106.8 486.9 103.8C486.0 102.8 484.6 102.0 483.9 102.0C483.1 102.0 481.8 101.1 481.0 100.0C480.2 98.8 478.4 98.0 476.8 98.0C475.3 98.0 474.0 97.5 474.0 97.0C474.0 96.5 472.3 96.0 470.2 96.0C467.6 96.0 466.0 95.4 465.0 94.0C464.2 92.8 462.4 92.0 460.8 92.0C459.3 92.0 457.8 91.6 457.5 91.0C456.4 89.2 454.0 89.9 454.0 92.0C454.0 93.3 454.7 94.0 455.8 94.0C456.8 94.0 458.2 94.9 459.0 96.0C459.8 97.1 461.2 98.0 462.2 98.0C463.2 98.0 464.0 98.5 464.0 99.0C464.0 99.5 464.9 100.0 466.0 100.0C467.1 100.0 468.0 100.5 468.0 101.0C468.0 101.5 468.8 102.0 469.8 102.0C470.8 102.0 472.2 102.9 473.0 104.0C473.8 105.1 475.1 106.0 476.0 106.0C476.9 106.0 478.2 106.9 479.0 108.0C479.8 109.1 481.2 110.0 482.2 110.0C483.2 110.0 484.0 110.5 484.0 111.0C484.0 111.5 484.9 112.0 486.0 112.0C487.3 112.0 488.0 112.7 488.0 114.0C488.0 115.3 488.7 116.0 490.0 116.0C491.1 116.0 492.0 116.5 492.0 117.0C492.0 117.5 492.9 118.0 494.0 118.0C495.3 118.0 496.0 118.7 496.0 120.0C496.0 122.2 497.6 122.7 498.3 120.8C498.9 119.2 504.0 124.3 504.0 126.5C504.0 127.3 504.9 128.0 505.9 128.0C507.0 128.0 508.0 128.6 508.3 129.3C508.6 130.1 509.3 129.7 510.6 128.2C512.3 126.2 512.8 126.1 515.2 127.2C518.2 128.6 518.6 129.5 517.0 130.5C516.4 130.9 516.2 131.5 516.4 131.9C516.7 132.3 515.3 132.4 513.4 132.2C511.5 132.0 510.0 132.1 510.0 132.4C510.0 133.5 522.9 146.0 524.0 146.0C525.5 146.0 530.0 150.7 530.0 152.2C530.0 153.0 530.9 154.2 532.0 155.0C533.1 155.8 534.0 157.2 534.0 158.2C534.0 159.3 534.7 160.0 536.0 160.0C537.3 160.0 538.0 160.7 538.0 162.0C538.0 163.1 538.5 164.0 539.0 164.0C539.5 164.0 540.0 164.8 540.0 165.8C540.0 166.8 540.9 168.2 542.0 169.0C543.3 169.9 544.0 171.6 544.0 173.5C544.0 177.7 546.1 182.0 548.2 182.0C549.2 182.0 550.0 182.7 550.0 183.6C550.0 184.5 550.8 186.0 551.8 186.9C552.8 187.8 553.9 189.3 554.3 190.2C554.6 191.2 555.6 192.0 556.5 192.0C557.3 192.0 558.0 192.7 558.0 193.6C558.0 194.5 559.4 196.5 561.0 198.0C562.6 199.5 564.0 201.5 564.0 202.4C564.0 203.3 564.5 204.0 565.0 204.0C565.5 204.0 566.0 204.9 566.0 206.0C566.0 207.1 566.7 208.0 567.5 208.0C570.3 208.0 576.0 214.7 576.0 217.9C576.0 220.2 576.7 221.3 579.0 222.7C580.6 223.6 582.0 225.1 582.0 226.0C582.0 226.9 582.9 228.2 584.0 229.0C585.1 229.8 586.0 231.2 586.0 232.2C586.0 233.2 586.3 234.0 586.8 234.0C587.6 234.0 590.0 238.9 590.0 240.7C590.0 241.4 590.5 242.0 591.0 242.0C591.5 242.0 592.0 242.9 592.0 244.0C592.0 245.1 592.5 246.0 593.0 246.0C593.5 246.0 594.0 246.9 594.0 248.0C594.0 249.1 594.5 250.0 595.0 250.0C595.5 250.0 596.0 250.8 596.0 251.8C596.0 252.8 596.9 254.2 598.0 255.0C599.2 255.8 600.0 257.6 600.0 259.2C600.0 260.7 600.5 262.0 601.0 262.0C601.5 262.0 602.0 262.9 602.0 264.0C602.0 265.1 602.5 266.0 603.0 266.0C603.5 266.0 604.0 267.8 604.0 270.0C604.0 272.2 604.5 274.0 605.0 274.0C605.5 274.0 606.0 274.9 606.0 276.0C606.0 277.1 606.5 278.0 607.0 278.0C607.5 278.0 608.0 280.2 608.0 283.0C608.0 285.8 608.5 288.0 609.0 288.0C609.5 288.0 610.0 290.2 610.0 293.0C610.0 295.8 610.5 298.0 611.0 298.0C611.6 298.0 612.0 301.7 612.0 307.0C612.0 312.3 612.4 316.0 613.0 316.0C613.5 316.0 614.0 318.2 614.0 321.0C614.0 323.8 614.5 326.0 615.0 326.0C615.6 326.0 616.0 331.0 616.0 338.9C616.0 346.5 615.6 352.1 615.0 352.5C614.5 352.8 614.0 356.0 614.0 359.6C614.0 363.2 613.6 366.0 613.0 366.0C612.5 366.0 612.0 367.8 612.0 370.0C612.0 372.2 611.6 374.0 611.2 374.0C610.7 374.0 609.7 376.2 609.0 379.0C608.3 381.8 607.3 384.0 606.8 384.0C606.4 384.0 606.0 385.4 606.0 387.0C606.0 388.6 605.5 390.0 605.0 390.0C604.5 390.0 604.0 392.2 604.0 395.0C604.0 397.8 603.5 400.0 603.0 400.0C602.5 400.0 602.0 402.2 602.0 405.0C602.0 407.8 601.5 410.0 601.0 410.0C600.5 410.0 600.0 411.4 600.0 413.0C600.0 414.6 599.5 416.0 599.0 416.0C598.5 416.0 598.0 416.9 598.0 418.0C598.0 419.1 597.5 420.0 597.0 420.0C596.5 420.0 596.0 420.9 596.0 422.0C596.0 423.1 595.5 424.0 595.0 424.0C594.5 424.0 594.0 426.2 594.0 429.0C594.0 431.8 593.5 434.0 593.0 434.0C592.5 434.0 592.0 435.8 592.0 438.0C592.0 440.2 591.5 442.0 591.0 442.0C590.5 442.0 590.0 443.4 590.0 445.0C590.0 446.6 589.5 448.0 589.0 448.0C588.4 448.0 588.0 450.7 588.0 454.0C588.0 457.3 587.6 460.0 587.0 460.0C586.5 460.0 586.0 460.9 586.0 462.0C586.0 463.1 585.5 464.0 585.0 464.0C584.5 464.0 584.0 465.3 584.0 466.9C584.0 468.5 583.4 470.0 582.8 470.3C581.8 470.6 581.8 471.2 582.9 473.1C583.9 474.7 583.9 475.5 583.1 475.8C582.5 476.0 582.0 478.5 582.0 481.7C582.0 486.5 581.6 487.5 579.0 490.0C576.7 492.1 576.0 493.7 576.0 496.4C576.0 498.4 575.5 500.0 575.0 500.0C574.5 500.0 574.0 500.9 574.0 502.0C574.0 503.1 573.5 504.0 573.0 504.0C572.5 504.0 572.0 504.9 572.0 506.0C572.0 507.1 571.5 508.0 571.0 508.0C570.5 508.0 570.0 508.8 570.0 509.8C570.0 510.8 569.1 512.2 568.0 513.0C566.9 513.8 566.0 515.5 566.0 516.8C566.0 518.2 564.7 520.4 563.0 522.0C561.3 523.5 560.0 525.5 560.0 526.4C560.0 527.3 559.2 528.0 558.0 528.0C556.9 528.0 556.0 528.7 556.0 529.5C556.0 531.5 547.5 540.0 545.5 540.0C544.7 540.0 544.0 540.9 544.0 542.0C544.0 543.5 543.3 544.0 541.5 544.0C540.0 544.0 538.7 544.7 538.3 545.7C537.3 548.3 533.3 552.0 531.5 552.0C530.7 552.0 530.0 552.7 530.0 553.5C530.0 555.3 525.6 560.0 523.9 560.0C523.3 560.0 521.5 561.4 520.0 563.0C518.5 564.6 516.7 566.0 516.0 566.0C514.4 566.0 512.0 568.6 512.0 570.4C512.0 571.3 511.3 572.0 510.4 572.0C509.6 572.0 506.7 574.2 504.0 577.0C501.3 579.8 498.4 582.0 497.6 582.0C496.7 582.0 496.0 582.5 496.0 583.0C496.0 583.5 495.1 584.0 494.0 584.0C492.9 584.0 492.0 584.5 492.0 585.0C492.0 585.5 490.6 586.0 489.0 586.0C487.4 586.0 486.0 586.5 486.0 587.0C486.0 587.5 484.6 588.0 483.0 588.0C480.7 588.0 480.0 588.4 480.0 590.0C480.0 591.7 479.3 592.0 475.0 592.0C472.2 592.0 470.0 592.5 470.0 593.0C470.0 593.5 468.7 594.0 467.2 594.0C465.6 594.0 463.8 594.8 463.0 596.0C462.2 597.1 460.8 598.0 459.8 598.0C458.8 598.0 458.0 598.5 458.0 599.0C458.0 599.5 456.2 600.0 454.0 600.0C451.8 600.0 450.0 600.5 450.0 601.0C450.0 601.5 448.6 602.0 447.0 602.0C445.4 602.0 444.0 602.5 444.0 603.0C444.0 603.5 443.1 604.0 442.0 604.0C440.7 604.0 440.0 604.7 440.0 606.0C440.0 607.4 439.3 608.0 437.7 608.0C436.4 608.0 434.4 608.9 433.2 610.0C432.0 611.1 430.4 612.0 429.5 612.0C428.7 612.0 428.0 612.5 428.0 613.0C428.0 613.5 426.2 614.0 424.0 614.0C421.8 614.0 420.0 614.5 420.0 615.0C420.0 615.5 419.1 616.0 418.0 616.0C416.9 616.0 416.0 616.5 416.0 617.0C416.0 617.5 414.2 618.0 412.0 618.0C409.8 618.0 408.0 618.5 408.0 619.0C408.0 619.5 407.1 620.0 406.0 620.0C404.9 620.0 404.0 620.5 404.0 621.0C404.0 621.5 402.6 622.0 401.0 622.0C399.4 622.0 398.0 622.5 398.0 623.0C398.0 623.6 395.3 624.0 392.0 624.0C388.7 624.0 386.0 624.4 386.0 625.0C386.0 625.5 384.2 626.0 382.0 626.0C379.8 626.0 378.0 626.5 378.0 627.0C378.0 627.5 376.2 628.0 374.0 628.0C371.8 628.0 370.0 628.5 370.0 629.0C370.0 629.5 368.2 630.0 366.0 630.0C363.8 630.0 362.0 630.5 362.0 631.0C362.0 631.5 359.8 632.0 357.0 632.0C354.2 632.0 352.0 632.5 352.0 633.0C352.0 633.5 351.1 634.0 350.0 634.0C348.9 634.0 348.0 634.5 348.0 635.0C348.0 635.6 343.0 636.0 335.0 636.0C327.0 636.0 322.0 636.4 322.0 637.0C322.0 638.5 310.3 638.3 309.6 636.8C309.1 635.8 308.9 635.8 308.4 636.8C307.7 638.3 306.3 638.4 305.5 637.0ZM210.0 613.5C209.3 612.7 208.1 612.0 207.4 612.0C206.6 612.0 206.0 611.5 206.0 611.0C206.0 610.5 206.4 610.0 206.9 610.0C207.5 610.0 208.2 610.5 208.5 611.0C208.8 611.5 210.7 612.0 212.6 612.0C216.1 612.0 217.2 613.3 214.4 614.4C212.1 615.3 211.4 615.2 210.0 613.5ZM354.0 531.0C354.0 529.5 365.7 529.7 366.4 531.2C366.9 532.2 367.1 532.2 367.6 531.2C368.3 529.8 376.0 529.5 376.0 531.0C376.0 531.5 377.4 532.0 379.0 532.0C380.6 532.0 382.0 531.5 382.0 531.0C382.0 530.5 383.8 530.0 386.0 530.0C388.2 530.0 390.0 529.5 390.0 529.0C390.0 528.4 393.0 528.0 397.0 528.0C401.0 528.0 404.0 527.6 404.0 527.0C404.0 526.5 405.4 526.0 407.0 526.0C408.6 526.0 410.0 525.5 410.0 525.0C410.0 524.5 411.3 524.0 412.8 524.0C414.4 524.0 416.2 523.2 417.0 522.0C417.8 520.8 419.6 520.0 421.2 520.0C422.7 520.0 424.0 519.5 424.0 519.0C424.0 518.5 424.9 518.0 426.0 518.0C427.1 518.0 428.0 517.5 428.0 517.0C428.0 516.5 428.8 516.0 429.8 516.0C430.8 516.0 432.2 515.1 433.0 514.0C434.0 512.6 435.6 512.0 438.2 512.0C441.0 512.0 442.0 511.6 442.0 510.4C442.0 508.4 444.4 506.0 446.4 506.0C447.3 506.0 448.0 505.6 448.0 505.0C448.0 504.4 448.7 504.0 449.6 504.0C450.4 504.0 453.7 501.4 456.9 498.2C462.6 492.5 466.0 490.0 468.0 490.0C469.6 490.0 476.0 483.3 476.0 481.5C476.0 480.7 476.9 480.0 478.0 480.0C479.2 480.0 480.0 479.3 480.0 478.4C480.0 477.6 481.8 475.1 484.0 473.0C486.2 470.9 488.0 468.4 488.0 467.6C488.0 466.7 488.7 466.0 489.5 466.0C491.4 466.0 496.0 461.6 496.0 459.8C496.0 459.0 496.9 457.8 498.0 457.0C499.1 456.2 500.0 454.9 500.0 454.0C500.0 453.1 500.9 451.8 502.0 451.0C503.1 450.2 504.0 448.9 504.0 448.0C504.0 447.1 504.9 445.8 506.0 445.0C507.1 444.2 508.0 442.9 508.0 442.0C508.0 441.1 508.9 439.8 510.0 439.0C511.2 438.2 512.0 436.4 512.0 434.8C512.0 433.3 512.5 432.0 513.0 432.0C513.5 432.0 514.0 431.2 514.0 430.2C514.0 429.2 514.9 427.8 516.0 427.0C517.1 426.2 518.0 424.8 518.0 423.8C518.0 422.8 518.5 422.0 519.0 422.0C519.6 422.0 520.0 419.3 520.0 416.0C520.0 412.7 520.4 410.0 521.0 410.0C521.5 410.0 522.0 409.1 522.0 408.0C522.0 406.9 522.5 406.0 523.0 406.0C523.5 406.0 524.0 405.1 524.0 404.0C524.0 402.9 524.4 402.0 524.8 402.0C525.3 402.0 526.3 400.8 527.1 399.2C527.9 397.7 528.9 396.2 529.5 395.8C530.1 395.3 529.9 394.6 529.0 394.0C527.7 393.1 527.7 392.9 529.0 392.0C530.3 391.1 530.3 390.9 529.0 389.9C527.9 389.1 527.8 388.7 528.8 388.3C529.7 388.0 530.0 383.3 530.0 369.9L530.0 352.0L527.4 352.0C523.3 352.0 522.0 349.8 522.0 342.7C522.0 337.1 521.7 336.2 520.0 335.7C518.4 335.3 518.0 334.3 518.0 330.7C518.0 328.0 518.5 326.0 519.2 325.8C520.1 325.5 520.0 324.8 518.7 323.5C516.7 321.6 517.1 317.2 519.3 315.8C520.2 315.2 520.1 314.8 519.1 314.1C517.9 313.3 517.9 312.9 518.9 311.6C520.0 310.3 520.0 309.7 518.9 308.4C517.9 307.1 517.9 306.7 519.1 305.8C520.2 305.1 520.2 304.7 519.2 304.3C518.6 304.1 518.0 302.5 518.0 300.9C518.0 299.3 517.5 298.0 517.0 298.0C516.5 298.0 516.0 297.1 516.0 296.0C516.0 294.7 515.3 294.0 514.0 294.0C512.1 294.0 512.0 293.3 512.0 283.9C512.0 275.3 511.8 273.9 510.5 274.4C507.9 275.4 506.0 273.9 506.0 270.9C506.0 269.3 505.6 268.0 505.0 268.0C504.4 268.0 504.0 267.1 504.0 266.0C504.0 264.9 503.6 264.0 503.0 264.0C502.4 264.0 502.0 263.0 502.0 261.7C502.0 260.4 501.1 258.4 500.0 257.2C498.9 256.0 498.0 254.0 498.0 252.8C498.0 251.5 497.1 249.8 496.0 249.0C494.9 248.2 494.0 246.8 494.0 245.8C494.0 244.8 493.6 244.0 493.0 244.0C492.4 244.0 492.0 243.1 492.0 242.0C492.0 240.9 491.6 240.0 491.0 240.0C490.4 240.0 490.0 239.2 490.0 238.2C490.0 237.2 489.1 235.8 488.0 235.0C486.9 234.2 486.0 232.9 486.0 232.0C486.0 231.1 485.1 229.8 484.0 229.0C482.9 228.2 482.0 226.8 482.0 225.8C482.0 224.8 481.6 224.0 481.0 224.0C480.4 224.0 480.0 223.3 480.0 222.4C480.0 221.6 478.2 219.1 476.0 217.0C473.8 214.9 472.0 212.6 472.0 212.0C472.0 211.4 470.2 209.1 468.0 207.0C465.8 204.9 464.0 202.6 464.0 202.0C464.0 200.3 461.4 198.0 459.6 198.0C458.7 198.0 458.0 197.2 458.0 196.0C458.0 194.7 457.3 194.0 456.0 194.0C454.9 194.0 454.0 193.6 454.0 193.0C454.0 192.4 453.1 192.0 452.0 192.0C450.7 192.0 450.0 191.3 450.0 190.0C450.0 188.9 449.6 188.0 449.0 188.0C448.4 188.0 448.0 188.7 448.0 189.6C448.0 190.4 447.3 191.9 446.4 192.7C445.1 194.0 444.4 194.1 442.9 193.2C441.9 192.5 440.1 192.0 438.9 192.0C437.8 192.0 434.8 189.8 432.0 187.0C429.3 184.2 426.6 182.0 426.0 182.0C424.5 182.0 422.0 179.5 422.0 178.0C422.0 176.3 419.4 174.0 417.6 174.0C416.7 174.0 416.0 173.3 416.0 172.4C416.0 170.6 413.7 168.0 412.0 168.0C411.4 168.0 409.1 166.2 407.0 164.0C404.6 161.6 402.2 160.0 400.8 160.0C399.5 160.0 397.8 159.1 397.0 158.0C396.2 156.9 394.8 156.0 393.8 156.0C392.8 156.0 392.0 155.6 392.0 155.0C392.0 152.9 390.1 154.1 388.8 157.0C388.1 158.7 387.1 159.8 386.5 159.5C386.0 159.2 384.7 158.7 383.8 158.4C382.8 158.0 382.0 157.4 382.0 156.9C382.0 156.4 380.6 156.0 379.0 156.0C377.4 156.0 376.0 155.6 376.0 155.0C376.0 154.4 375.1 154.0 374.0 154.0C372.9 154.0 372.0 153.6 372.0 153.0C372.0 152.4 371.1 152.0 370.0 152.0C368.9 152.0 368.0 151.6 368.0 151.0C368.0 150.4 367.1 150.0 366.0 150.0C364.9 150.0 364.0 149.6 364.0 149.0C364.0 148.4 363.1 148.0 362.0 148.0C360.9 148.0 360.0 147.6 360.0 147.0C360.0 146.4 358.6 146.0 357.0 146.0C355.4 146.0 354.0 145.6 354.0 145.0C354.0 144.4 352.6 144.0 351.0 144.0C349.4 144.0 348.0 143.6 348.0 143.0C348.0 142.4 345.0 142.0 341.1 142.0C336.5 142.0 334.0 141.6 333.7 140.8C333.3 139.8 332.9 139.9 332.1 141.0C331.3 142.2 330.8 142.2 329.8 141.2C328.3 139.7 280.0 139.4 280.0 141.0C280.0 141.6 278.2 142.0 276.0 142.0C273.8 142.0 272.0 142.4 272.0 143.0C272.0 143.6 271.1 144.0 270.0 144.0C268.9 144.0 268.0 144.4 268.0 145.0C268.0 145.6 266.2 146.0 264.0 146.0C261.8 146.0 260.0 146.4 260.0 147.0C260.0 147.6 258.6 148.0 257.0 148.0C255.3 148.0 254.0 148.4 254.0 149.0C254.0 149.6 252.7 150.0 251.0 150.0C249.3 150.0 248.0 150.4 248.0 151.0C248.0 151.6 247.2 152.0 246.2 152.0C245.2 152.0 243.8 152.9 243.0 154.0C242.2 155.1 240.8 156.0 239.8 156.0C238.8 156.0 238.0 156.4 238.0 157.0C238.0 157.6 237.1 158.0 236.0 158.0C234.9 158.0 234.0 158.4 234.0 159.0C234.0 159.6 232.9 160.0 231.6 160.0C230.2 160.0 227.6 161.6 225.1 164.0C222.9 166.2 220.5 168.0 220.0 168.0C218.7 168.0 200.0 186.7 200.0 188.0C200.0 188.6 198.7 190.4 197.0 192.2C195.3 193.9 194.0 196.2 194.0 197.2C194.0 199.5 189.7 204.0 187.5 204.0C186.7 204.0 186.0 204.8 186.0 205.8C186.0 206.8 185.1 208.2 184.0 209.0C182.9 209.8 182.0 211.2 182.0 212.2C182.0 213.2 181.6 214.0 181.0 214.0C180.4 214.0 180.0 214.9 180.0 216.0C180.0 217.1 179.6 218.0 179.0 218.0C178.4 218.0 178.0 218.7 178.0 219.6C178.0 220.5 177.0 222.1 175.9 223.1C174.1 224.6 173.9 225.2 175.0 226.5C176.0 227.8 175.9 228.0 174.1 228.0C172.4 228.0 172.0 228.6 172.0 231.0C172.0 232.7 171.6 234.0 171.0 234.0C170.4 234.0 170.0 234.9 170.0 236.0C170.0 237.1 169.6 238.0 169.0 238.0C168.4 238.0 168.0 239.3 168.0 241.0C168.0 242.7 167.6 244.0 167.0 244.0C166.4 244.0 166.0 245.3 166.0 247.0C166.0 248.7 165.6 250.0 165.0 250.0C164.4 250.0 164.0 252.7 164.0 256.0C164.0 259.3 163.6 262.0 163.1 262.0C162.0 262.0 161.1 269.5 160.4 283.8C160.1 289.4 159.5 294.0 158.9 294.0C158.4 294.0 158.0 295.4 158.0 297.0C158.0 298.6 158.4 300.0 159.0 300.0C160.4 300.0 160.2 303.7 158.8 304.3C157.8 304.7 157.8 305.0 158.7 305.7C160.3 306.9 160.7 327.3 159.1 327.8C158.5 328.0 158.0 328.9 158.0 329.9C158.0 332.1 156.1 334.0 153.8 334.0C152.8 334.0 152.0 334.4 152.0 335.0C152.0 335.6 152.4 336.0 153.0 336.0C153.6 336.0 154.0 336.9 154.0 337.9C154.0 339.0 154.6 340.1 155.2 340.4C156.2 340.9 156.2 341.1 155.2 341.6C154.6 341.9 154.0 343.0 154.0 344.1C154.0 345.1 153.6 346.0 153.0 346.0C152.4 346.0 152.0 346.4 152.0 347.0C152.0 347.6 152.9 348.0 154.0 348.0C155.1 348.0 156.0 348.2 156.0 348.4C156.0 348.6 156.3 349.5 156.6 350.4C157.0 351.5 156.7 352.0 155.6 352.0C154.5 352.0 154.0 352.9 154.0 355.0C154.0 356.6 154.4 358.0 155.0 358.0C155.6 358.0 156.0 358.7 156.0 359.5C156.0 360.3 156.4 361.0 156.9 361.0C157.4 361.0 158.0 360.3 158.4 359.5C159.2 357.3 161.0 357.7 161.0 360.0C161.0 361.1 160.3 362.0 159.5 362.0C158.7 362.0 158.0 362.5 158.0 363.2C158.0 364.1 157.7 364.1 156.8 363.2C155.1 361.5 154.0 361.7 154.0 363.9C154.0 365.0 153.4 366.1 152.8 366.3C151.9 366.7 151.9 367.1 152.5 367.7C154.6 369.4 156.3 373.4 155.1 373.8C153.7 374.3 153.6 380.0 155.0 380.0C155.6 380.0 156.0 381.4 156.0 383.0C156.0 384.6 155.6 386.0 155.0 386.0C154.4 386.0 154.0 386.4 154.0 387.0C154.0 387.6 155.1 388.0 156.4 388.0C157.7 388.0 159.1 388.7 159.4 389.6C160.3 392.1 160.1 396.0 159.0 396.0C158.4 396.0 158.0 396.9 158.0 398.0C158.0 399.1 158.4 400.0 159.0 400.0C159.6 400.0 160.0 402.6 160.0 405.8C160.0 410.4 160.4 411.8 162.0 412.8C163.3 413.6 164.0 415.1 164.0 417.0C164.0 418.7 164.4 420.0 165.0 420.0C165.6 420.0 166.0 420.9 166.0 422.0C166.0 423.1 166.4 424.0 167.0 424.0C167.6 424.0 168.0 425.4 168.0 427.0C168.0 428.6 168.4 430.0 169.0 430.0C169.6 430.0 170.0 430.8 170.0 431.8C170.0 432.8 170.9 434.2 172.0 435.0C173.2 435.8 174.0 437.6 174.0 439.2C174.0 440.7 174.4 442.0 175.0 442.0C175.6 442.0 176.0 442.7 176.0 443.6C176.0 444.4 177.8 446.9 180.0 449.0C182.2 451.1 184.0 453.6 184.0 454.4C184.0 455.3 184.8 456.0 186.0 456.0C187.6 456.0 188.0 455.3 188.0 453.0C188.0 451.4 188.3 450.0 188.6 450.0C189.9 450.0 196.0 456.5 196.0 457.8C196.0 459.4 198.5 462.0 200.0 462.0C202.0 462.0 204.0 464.8 204.0 467.4C204.0 469.3 204.5 470.0 206.0 470.0C207.5 470.0 208.0 470.7 208.0 472.6C208.0 475.2 210.0 478.0 211.8 478.0C213.5 478.0 224.0 488.7 224.0 490.4C224.0 491.3 224.8 492.0 225.8 492.0C226.8 492.0 228.2 492.9 229.0 494.0C229.8 495.1 231.1 496.0 232.0 496.0C232.9 496.0 234.2 496.9 235.0 498.0C235.8 499.1 237.5 500.0 238.8 500.0C240.2 500.0 242.4 501.3 244.0 503.0C245.5 504.6 247.4 506.0 248.2 506.0C248.9 506.0 250.2 506.9 251.0 508.0C251.8 509.1 253.2 510.0 254.2 510.0C255.2 510.0 256.0 510.4 256.0 511.0C256.0 511.6 257.8 512.0 260.0 512.0C262.2 512.0 264.0 512.5 264.0 513.0C264.0 513.5 265.3 514.0 266.8 514.0C268.4 514.0 270.2 514.8 271.0 516.0C271.8 517.1 273.2 518.0 274.2 518.0C275.2 518.0 276.0 518.5 276.0 519.0C276.0 519.5 276.9 520.0 278.0 520.0C279.1 520.0 280.0 520.5 280.0 521.0C280.0 521.5 281.4 522.0 283.0 522.0C284.6 522.0 286.0 522.5 286.0 523.0C286.0 523.5 286.9 524.0 288.0 524.0C289.1 524.0 290.0 524.5 290.0 525.0C290.0 525.5 292.2 526.0 295.0 526.0C297.8 526.0 300.0 526.5 300.0 527.0C300.0 527.6 302.7 528.0 306.0 528.0C309.3 528.0 312.0 528.4 312.0 529.0C312.0 529.5 313.8 530.0 316.0 530.0C318.2 530.0 320.0 530.5 320.0 531.0C320.0 531.6 326.3 532.0 337.0 532.0C347.7 532.0 354.0 531.6 354.0 531.0ZM94.3 500.7C94.8 499.3 94.1 494.0 93.3 494.0C93.1 494.0 92.1 494.8 91.2 495.7C90.0 496.9 89.9 497.5 90.8 497.8C91.4 498.0 92.0 499.0 92.0 500.1C92.0 502.3 93.5 502.7 94.3 500.7ZM88.0 487.0C88.0 486.4 87.1 486.0 86.0 486.0C84.9 486.0 84.0 485.6 84.0 485.0C84.0 484.4 83.1 484.0 82.0 484.0C80.9 484.0 80.0 484.4 80.0 485.0C80.0 485.6 80.9 486.0 82.0 486.0C83.1 486.0 84.0 486.4 84.0 487.0C84.0 487.6 84.9 488.0 86.0 488.0C87.1 488.0 88.0 487.6 88.0 487.0ZM554.7 484.5C555.5 483.6 556.0 482.6 555.7 482.3C555.1 481.8 552.0 484.4 552.0 485.4C552.0 486.4 553.1 486.0 554.7 484.5ZM184.0 477.4C184.0 475.8 182.8 473.7 181.0 472.0C179.3 470.5 178.0 468.7 178.0 468.0C178.0 466.4 175.4 464.0 173.6 464.0C172.5 464.0 172.0 463.1 172.0 461.4C172.0 459.8 170.8 457.7 169.0 456.0C167.3 454.5 166.0 452.5 166.0 451.6C166.0 450.7 165.6 450.0 165.0 450.0C164.4 450.0 164.0 449.2 164.0 448.2C164.0 447.2 163.1 445.8 162.0 445.0C160.7 444.0 160.0 442.4 160.0 440.2C160.0 437.7 159.5 436.7 158.0 436.3C156.9 436.0 156.0 434.9 156.0 433.9C156.0 432.8 155.6 432.0 155.0 432.0C154.4 432.0 154.0 431.2 154.0 430.2C154.0 429.2 153.1 427.8 152.0 427.0C150.9 426.2 150.0 424.9 150.0 424.0C150.0 423.1 149.1 421.8 148.0 421.0C146.9 420.2 146.0 419.0 146.0 418.2C146.0 416.9 143.7 414.0 142.6 414.0C142.3 414.0 142.0 415.4 142.0 417.0C142.0 418.6 142.4 420.0 143.0 420.0C143.6 420.0 144.0 422.2 144.0 425.0C144.0 427.8 144.4 430.0 145.0 430.0C145.6 430.0 146.0 430.9 146.0 432.0C146.0 433.1 146.4 434.0 147.0 434.0C147.6 434.0 148.0 435.4 148.0 437.0C148.0 438.6 148.4 440.0 149.0 440.0C149.6 440.0 150.0 440.9 150.0 442.0C150.0 443.1 150.4 444.0 151.0 444.0C151.6 444.0 152.0 444.7 152.0 445.6C152.0 446.4 153.8 448.9 156.0 451.0C158.6 453.5 160.0 455.7 160.0 457.4C160.0 459.6 160.4 460.0 163.0 460.0C165.1 460.0 166.0 460.5 166.0 461.6C166.0 463.6 168.4 466.0 170.4 466.0C171.3 466.0 172.0 466.7 172.0 467.6C172.0 469.9 174.5 472.0 177.4 472.0C179.5 472.0 180.0 472.5 180.0 474.5C180.0 477.0 181.7 479.9 183.2 480.0C183.7 480.0 184.0 478.8 184.0 477.4ZM80.7 472.5C81.5 471.6 82.0 470.6 81.7 470.3C80.7 469.3 78.0 470.9 78.0 472.5C78.0 474.4 78.7 474.4 80.7 472.5ZM70.0 462.0C70.0 460.9 70.5 460.0 71.0 460.0C71.5 460.0 72.0 460.9 72.0 462.0C72.0 463.1 71.5 464.0 71.0 464.0C70.5 464.0 70.0 463.1 70.0 462.0ZM556.0 463.0C556.0 462.4 556.7 462.0 557.6 462.0C559.6 462.0 562.0 459.6 562.0 457.6C562.0 456.7 562.7 456.0 563.6 456.0C564.7 456.0 565.0 455.4 564.5 454.0C564.0 452.4 564.3 452.0 565.9 452.0C567.3 452.0 568.0 451.4 568.0 450.0C568.0 448.7 568.7 448.0 570.0 448.0C571.6 448.0 572.0 447.3 572.0 445.0C572.0 443.4 572.5 442.0 573.0 442.0C573.5 442.0 574.0 441.1 574.0 440.0C574.0 438.9 574.5 438.0 575.0 438.0C575.5 438.0 576.0 436.6 576.0 435.0C576.0 433.4 576.5 432.0 577.0 432.0C577.5 432.0 578.0 431.1 578.0 430.0C578.0 428.9 578.5 428.0 579.0 428.0C579.5 428.0 580.0 427.1 580.0 426.0C580.0 424.9 580.5 424.0 581.0 424.0C581.5 424.0 582.0 422.2 582.0 420.0C582.0 417.8 582.5 416.0 583.0 416.0C583.5 416.0 584.0 414.6 584.0 413.0C584.0 411.4 584.5 410.0 585.0 410.0C585.5 410.0 586.0 409.1 586.0 408.0C586.0 406.9 586.5 406.0 587.0 406.0C587.5 406.0 588.0 405.1 588.0 404.0C588.0 402.9 588.5 402.0 589.0 402.0C589.5 402.0 590.0 401.1 590.0 400.0C590.0 398.9 590.5 398.0 591.0 398.0C591.5 398.0 592.0 396.7 592.0 395.2C592.0 393.6 592.8 391.8 594.0 391.0C595.1 390.2 596.0 388.5 596.0 387.2C596.0 386.0 596.9 384.0 598.0 382.8C599.4 381.3 600.0 379.2 600.0 376.3C600.0 373.9 600.5 372.0 601.0 372.0C601.5 372.0 602.0 370.6 602.0 369.0C602.0 367.4 602.5 366.0 603.0 366.0C603.6 366.0 604.0 361.0 604.0 353.0C604.0 345.0 604.4 340.0 605.0 340.0C605.5 340.0 606.0 339.1 606.0 338.0C606.0 336.9 605.5 336.0 605.0 336.0C604.4 336.0 604.0 328.7 604.0 316.0C604.0 303.3 603.6 296.0 603.0 296.0C602.5 296.0 602.0 294.2 602.0 292.0C602.0 289.8 601.5 288.0 601.0 288.0C600.5 288.0 600.0 286.2 600.0 284.0C600.0 281.8 599.5 280.0 599.0 280.0C598.5 280.0 598.0 278.6 598.0 277.0C598.0 275.4 597.5 274.0 597.0 274.0C596.5 274.0 596.0 272.2 596.0 270.0C596.0 267.8 595.5 266.0 595.0 266.0C594.5 266.0 594.0 265.1 594.0 264.0C594.0 262.9 593.5 262.0 593.0 262.0C592.5 262.0 592.0 260.7 592.0 259.2C592.0 257.6 591.2 255.8 590.0 255.0C588.9 254.2 588.0 252.4 588.0 251.0C588.0 249.6 587.1 247.8 586.0 247.0C584.9 246.2 584.0 244.8 584.0 243.8C584.0 242.8 583.5 242.0 583.0 242.0C582.5 242.0 582.0 241.1 582.0 240.0C582.0 238.9 581.5 238.0 581.0 238.0C580.5 238.0 580.0 237.2 580.0 236.2C580.0 235.2 579.1 233.8 578.0 233.0C576.9 232.2 576.0 230.6 576.0 229.5C576.0 227.2 571.3 221.3 570.3 222.4C569.9 222.8 570.1 224.0 570.8 225.0C571.5 226.1 572.0 229.0 572.0 231.5C572.0 234.0 572.5 236.0 573.0 236.0C573.5 236.0 574.0 237.3 574.0 239.0C574.0 240.7 574.4 242.0 574.9 242.0C575.4 242.0 576.0 244.8 576.2 248.1C576.5 252.3 577.2 254.7 578.3 255.5C579.5 256.3 580.0 258.2 580.0 261.4C580.0 263.9 580.5 266.0 581.0 266.0C581.5 266.0 582.0 267.4 582.0 269.0C582.0 270.6 582.5 272.0 583.0 272.0C583.6 272.0 584.0 275.0 584.0 279.0C584.0 283.0 584.4 286.0 585.0 286.0C585.6 286.0 586.0 289.3 586.0 294.0C586.0 298.7 586.4 302.0 587.0 302.0C587.6 302.0 588.0 307.7 588.0 317.0C588.0 326.3 587.6 332.0 587.0 332.0C586.5 332.0 586.0 334.2 586.0 337.0C586.0 339.8 585.5 342.0 585.0 342.0C584.5 342.0 584.0 343.4 584.0 345.0C584.0 346.6 583.5 348.0 583.0 348.0C582.5 348.0 582.0 348.9 582.0 350.0C582.0 351.1 581.5 352.0 581.0 352.0C580.5 352.0 580.0 352.8 580.0 353.8C580.0 354.8 579.1 356.2 578.0 357.0C576.9 357.8 576.0 359.2 576.0 360.2C576.0 361.2 575.5 362.0 575.0 362.0C574.5 362.0 574.0 362.9 574.0 363.9C574.0 365.0 573.5 366.2 573.0 366.5C572.5 366.8 572.0 369.6 572.0 372.6C572.0 375.6 571.5 378.0 571.0 378.0C570.5 378.0 570.0 379.4 570.0 381.0C570.0 382.6 569.5 384.0 569.0 384.0C568.5 384.0 568.0 386.2 568.0 389.0C568.0 391.8 567.5 394.0 567.0 394.0C566.5 394.0 566.0 395.4 566.0 397.0C566.0 398.6 565.5 400.0 565.0 400.0C564.5 400.0 564.0 401.3 564.0 402.9C564.0 404.5 563.4 406.1 562.8 406.4C561.8 406.9 561.8 407.1 562.8 407.6C563.4 407.9 564.0 409.0 564.0 410.1C564.0 411.1 564.5 412.0 565.0 412.0C565.5 412.0 566.0 412.9 566.0 414.0C566.0 415.1 566.5 416.0 567.0 416.0C567.5 416.0 568.0 415.6 568.0 415.1C568.0 414.1 571.0 412.7 571.7 413.4C571.9 413.6 571.6 414.9 570.9 416.2C568.3 421.1 568.0 422.1 568.0 424.8C568.0 426.4 567.2 428.2 566.0 429.0C564.8 429.8 564.0 431.6 564.0 433.2C564.0 434.7 563.5 436.0 563.0 436.0C562.5 436.0 562.0 436.9 562.0 438.0C562.0 439.1 561.5 440.0 561.0 440.0C560.5 440.0 560.0 441.3 560.0 442.8C560.0 444.4 559.2 446.2 558.0 447.0C556.8 447.8 556.0 449.6 556.0 451.2C556.0 452.7 555.5 454.0 555.0 454.0C553.6 454.0 553.8 458.3 555.2 459.9C556.2 461.0 556.2 461.3 555.2 461.7C553.8 462.3 553.6 464.0 555.0 464.0C555.5 464.0 556.0 463.6 556.0 463.0ZM178.2 431.9C176.1 431.1 175.0 428.0 176.8 428.0C177.9 428.0 181.5 431.9 180.9 432.4C180.7 432.6 179.5 432.4 178.2 431.9ZM548.0 414.0C548.0 412.9 547.5 412.0 547.0 412.0C546.5 412.0 546.0 412.9 546.0 414.0C546.0 415.1 546.5 416.0 547.0 416.0C547.5 416.0 548.0 415.1 548.0 414.0ZM140.0 407.0C140.0 405.4 139.6 404.0 139.0 404.0C138.4 404.0 138.0 405.4 138.0 407.0C138.0 408.6 138.4 410.0 139.0 410.0C139.6 410.0 140.0 408.6 140.0 407.0ZM550.0 407.2C550.0 405.6 550.8 403.8 552.0 403.0C553.1 402.2 554.0 400.8 554.0 399.8C554.0 398.8 554.5 398.0 555.0 398.0C555.5 398.0 556.0 397.1 556.0 396.0C556.0 394.9 556.5 394.0 557.0 394.0C557.6 394.0 558.0 391.0 558.0 387.0C558.0 383.0 558.4 380.0 559.0 380.0C559.5 380.0 560.0 379.1 560.0 378.1C560.0 377.0 560.6 376.0 561.2 375.7C561.9 375.5 562.2 374.9 561.8 374.5C561.3 374.0 560.2 374.7 559.1 375.8C556.6 378.7 556.0 378.6 556.0 375.0C556.0 373.4 555.5 372.0 555.0 372.0C554.5 372.0 554.0 371.1 554.0 370.0C554.0 368.9 553.5 368.0 553.0 368.0C552.5 368.0 552.0 367.1 552.0 366.0C552.0 364.9 552.5 364.0 553.0 364.0C553.5 364.0 554.0 363.1 554.0 362.0C554.0 360.9 554.5 360.0 555.0 360.0C555.5 360.0 556.0 359.1 556.0 358.1C556.0 357.0 556.5 356.0 557.2 355.8C559.3 355.1 557.2 352.0 554.5 352.0C552.7 352.0 552.0 352.5 552.0 353.9C552.0 355.0 551.4 356.1 550.8 356.3C549.8 356.7 549.9 357.1 551.0 357.9C552.2 358.7 552.2 359.2 551.2 360.2C550.4 361.0 550.0 364.6 550.0 370.7C550.0 376.2 549.6 380.0 549.0 380.0C548.5 380.0 548.0 382.2 548.0 385.0C548.0 389.3 547.7 390.0 546.0 390.0C543.8 390.0 543.3 391.5 545.2 392.3C546.2 392.7 546.1 393.1 545.0 394.0C543.9 394.9 543.8 395.3 544.8 395.7C545.4 395.9 546.0 397.0 546.0 398.1C546.0 399.1 546.5 400.0 547.0 400.0C547.5 400.0 548.0 402.2 548.0 405.0C548.0 407.8 548.5 410.0 549.0 410.0C549.5 410.0 550.0 408.7 550.0 407.2ZM575.2 400.3C573.5 399.6 573.7 398.0 575.5 398.0C576.3 398.0 577.0 398.7 577.0 399.5C577.0 400.3 576.9 401.0 576.8 400.9C576.6 400.9 575.9 400.6 575.2 400.3ZM138.0 399.4C138.0 398.4 134.9 395.8 134.3 396.3C133.3 397.3 134.9 400.0 136.5 400.0C137.3 400.0 138.0 399.7 138.0 399.4ZM553.7 382.6C553.1 381.0 553.9 379.8 555.1 380.6C556.3 381.3 556.2 384.0 555.1 384.0C554.6 384.0 554.0 383.4 553.7 382.6ZM20.0 380.0C20.0 378.9 20.7 378.0 21.5 378.0C23.2 378.0 23.3 378.2 22.4 380.4C21.5 382.7 20.0 382.4 20.0 380.0ZM583.6 368.2C584.2 362.1 584.4 361.5 585.7 362.3C586.1 362.6 586.3 365.3 586.2 368.4C585.9 372.4 585.4 374.0 584.4 374.0C583.3 374.0 583.1 372.8 583.6 368.2ZM19.4 369.4C19.7 368.5 20.0 367.4 20.0 366.9C20.0 366.4 20.4 366.0 21.0 366.0C21.6 366.0 22.0 367.1 22.0 368.5C22.0 370.1 21.4 371.0 20.4 371.0C19.3 371.0 19.0 370.5 19.4 369.4ZM584.0 357.1C584.0 355.1 586.7 352.3 587.7 353.4C588.0 353.7 587.8 354.0 587.2 354.0C586.5 354.0 586.0 355.1 586.0 356.5C586.0 357.9 585.5 359.0 585.0 359.0C584.5 359.0 584.0 358.2 584.0 357.1ZM584.0 349.0C584.0 348.4 584.4 348.0 584.9 348.0C585.4 348.0 586.1 347.0 586.5 345.8C587.1 343.8 587.3 343.7 587.7 345.3C588.0 346.3 587.9 347.8 587.6 348.6C587.0 350.2 584.0 350.5 584.0 349.0ZM158.0 345.6C158.0 344.7 158.7 344.0 159.6 344.0C160.5 344.0 161.0 344.5 160.8 345.2C160.2 347.0 158.0 347.3 158.0 345.6ZM562.0 343.0C562.0 341.4 562.5 340.0 563.0 340.0C563.5 340.0 564.0 339.1 564.0 338.0C564.0 336.9 564.5 336.0 565.0 336.0C565.5 336.0 566.0 335.1 566.0 334.0C566.0 332.9 566.5 332.0 567.0 332.0C567.6 332.0 568.0 326.3 568.0 317.0C568.0 307.7 567.6 302.0 567.0 302.0C566.4 302.0 566.0 297.0 566.0 289.0C566.0 281.0 565.6 276.0 565.0 276.0C564.4 276.0 564.0 273.3 564.0 270.0C564.0 266.7 563.6 264.0 563.0 264.0C562.5 264.0 562.0 262.5 562.0 260.7C562.0 258.8 561.2 256.5 560.0 255.2C558.9 254.0 558.0 252.2 558.0 251.1C558.0 250.0 557.5 248.8 557.0 248.5C556.5 248.2 556.0 247.0 556.0 245.9C556.0 244.9 555.5 244.0 555.0 244.0C554.5 244.0 554.0 242.7 554.0 241.0C554.0 239.3 553.5 238.0 553.0 238.0C552.5 238.0 552.0 236.7 552.0 235.2C552.0 233.6 551.2 231.8 550.0 231.0C548.9 230.2 548.0 228.8 548.0 227.8C548.0 226.8 547.5 226.0 547.0 226.0C546.5 226.0 546.0 225.1 546.0 224.0C546.0 222.9 545.5 222.0 545.0 222.0C544.5 222.0 544.0 221.2 544.0 220.2C544.0 219.2 543.1 217.8 542.0 217.0C540.9 216.2 540.0 214.8 540.0 213.8C540.0 212.5 539.2 212.0 537.0 212.0C535.4 212.0 534.0 212.4 534.0 213.0C534.0 213.6 534.5 214.0 535.0 214.0C535.5 214.0 536.0 216.0 536.0 218.4C536.0 220.9 536.5 223.2 537.0 223.5C537.5 223.8 538.0 225.0 538.0 226.1C538.0 227.1 538.5 228.0 539.0 228.0C539.5 228.0 540.0 229.8 540.0 232.0C540.0 234.2 540.5 236.0 541.0 236.0C541.5 236.0 542.0 236.9 542.0 238.0C542.0 239.1 542.5 240.0 543.0 240.0C543.5 240.0 544.0 242.2 544.0 245.0C544.0 247.8 544.5 250.0 545.0 250.0C545.5 250.0 546.0 250.9 546.0 252.0C546.0 253.1 546.5 254.0 547.0 254.0C547.6 254.0 548.0 257.0 548.0 261.0C548.0 265.0 548.4 268.0 549.0 268.0C549.5 268.0 550.0 270.2 550.0 272.9C550.0 275.8 550.5 278.0 551.2 278.2C551.9 278.5 552.3 281.0 552.3 285.1C552.3 288.6 552.7 291.8 553.3 292.1C553.8 292.5 553.6 293.7 552.8 295.0C551.8 296.8 551.8 297.4 552.8 297.7C554.2 298.3 554.4 302.0 553.0 302.0C552.5 302.0 552.0 303.4 552.0 305.0C552.0 306.6 552.5 308.0 553.0 308.0C553.5 308.0 554.0 308.9 554.0 310.0C554.0 311.1 554.5 312.0 555.0 312.0C555.5 312.0 556.0 314.2 556.0 316.9C556.0 319.7 556.5 322.0 557.1 322.2C557.9 322.5 557.9 323.3 556.9 324.9C555.8 326.8 555.8 327.4 556.8 327.7C557.6 328.0 558.0 330.6 558.0 335.6C558.0 340.2 558.5 343.6 559.2 344.5C561.2 346.7 562.0 346.3 562.0 343.0ZM605.7 242.4C604.9 241.6 605.8 240.0 607.1 240.0C607.6 240.0 608.0 240.7 608.0 241.5C608.0 243.0 606.8 243.5 605.7 242.4ZM46.0 206.0C46.0 204.9 46.5 204.0 47.0 204.0C47.5 204.0 48.0 204.9 48.0 206.0C48.0 207.1 47.5 208.0 47.0 208.0C46.5 208.0 46.0 207.1 46.0 206.0ZM448.5 199.4C446.0 196.1 446.0 194.6 448.2 194.2C449.5 194.0 450.0 194.5 450.0 195.9C450.0 197.1 450.4 198.0 451.0 198.0C451.6 198.0 452.0 198.9 452.0 200.0C452.0 202.7 450.9 202.5 448.5 199.4ZM50.0 199.2C50.0 198.0 54.9 193.5 55.5 194.2C56.5 195.2 53.4 200.0 51.8 200.0C50.8 200.0 50.0 199.6 50.0 199.2ZM42.0 196.2C42.0 194.3 43.8 192.0 45.2 192.0C45.6 192.0 46.0 193.3 46.0 195.0C46.0 197.3 45.6 198.0 44.0 198.0C42.7 198.0 42.0 197.3 42.0 196.2ZM67.4 186.4C67.7 185.5 68.0 184.4 68.0 183.9C68.0 183.4 68.5 183.0 69.0 183.0C69.5 183.0 70.0 184.1 70.0 185.5C70.0 187.1 69.4 188.0 68.4 188.0C67.3 188.0 67.0 187.5 67.4 186.4ZM536.0 144.0C536.0 142.9 536.5 142.0 537.0 142.0C537.5 142.0 538.0 142.9 538.0 144.0C538.0 145.1 537.5 146.0 537.0 146.0C536.5 146.0 536.0 145.1 536.0 144.0ZM510.0 141.4C510.0 141.1 509.3 140.2 508.5 139.3C506.5 137.4 505.3 138.3 507.1 140.4C508.5 141.9 510.0 142.5 510.0 141.4ZM504.0 135.0C504.0 134.4 503.6 134.0 503.0 134.0C502.4 134.0 502.0 133.1 502.0 132.0C502.0 130.7 501.3 130.0 500.1 130.0C499.1 130.0 497.2 128.7 495.9 127.0C494.6 125.4 492.7 124.0 491.8 124.0C490.8 124.0 490.0 123.5 490.0 123.0C490.0 122.5 489.2 122.0 488.2 122.0C487.2 122.0 485.8 121.1 485.0 120.0C484.2 118.9 482.8 118.0 481.8 118.0C480.7 118.0 480.0 117.3 480.0 116.0C480.0 114.3 479.3 114.0 476.0 114.0C473.8 114.0 472.0 114.3 472.0 114.6C472.0 115.7 474.9 118.0 476.2 118.0C477.0 118.0 478.2 118.9 479.0 120.0C479.8 121.1 481.1 122.0 481.8 122.0C482.6 122.0 484.5 123.3 486.0 125.0C487.6 126.7 489.8 128.0 491.2 128.0C492.5 128.0 494.8 129.3 496.3 131.0C497.9 132.7 499.8 134.0 500.6 134.0C501.4 134.0 502.0 134.4 502.0 135.0C502.0 135.6 502.4 136.0 503.0 136.0C503.6 136.0 504.0 135.6 504.0 135.0ZM97.2 128.8C95.4 127.0 95.7 126.0 98.0 126.0C99.1 126.0 100.0 125.5 100.0 125.0C100.0 124.5 100.5 124.0 101.0 124.0C102.4 124.0 102.3 127.3 100.8 128.8C100.1 129.5 99.3 130.0 99.0 130.0C98.7 130.0 97.9 129.5 97.2 128.8ZM104.0 123.1C104.0 121.8 106.9 119.6 107.7 120.3C108.4 121.1 106.2 124.0 104.9 124.0C104.4 124.0 104.0 123.6 104.0 123.1ZM504.2 120.8C504.9 118.9 508.0 118.6 508.0 120.4C508.0 121.4 507.1 122.0 505.9 122.0C504.7 122.0 504.0 121.5 504.2 120.8ZM107.0 115.4C107.0 114.2 110.4 112.1 112.2 112.0C114.3 112.0 114.5 113.1 112.8 114.8C111.6 116.0 107.0 116.5 107.0 115.4ZM114.0 108.0C114.0 106.9 114.5 106.0 115.0 106.0C115.5 106.0 116.0 106.9 116.0 108.0C116.0 109.1 115.5 110.0 115.0 110.0C114.5 110.0 114.0 109.1 114.0 108.0ZM542.0 108.8C541.9 106.9 539.1 103.5 538.3 104.3C537.5 105.1 540.0 110.0 541.2 110.0C541.6 110.0 542.0 109.4 542.0 108.8ZM425.0 20.5C425.0 19.7 425.7 19.0 426.5 19.0C427.3 19.0 428.0 19.7 428.0 20.5C428.0 21.3 427.3 22.0 426.5 22.0C425.7 22.0 425.0 21.3 425.0 20.5ZM430.0 19.6C430.0 18.2 430.4 17.0 431.0 17.0C431.6 17.0 432.0 17.9 432.0 18.9C432.0 20.0 431.6 21.2 431.0 21.5C430.4 21.9 430.0 21.0 430.0 19.6Z" fill="#B4602C" fill-rule="evenodd"/></svg>